<?xml version="1.0" encoding="UTF-8"?>
<svg version="1.1" xmlns="http://www.w3.org/2000/svg" width="500" height="500">
<path d="M0 0 C1.89045044 0.00580078 1.89045044 0.00580078 3.8190918 0.01171875 C12.54253089 0.09279893 20.9904937 0.59185716 29.5625 2.25 C33.13717361 12.0919585 22.26278835 28.83031579 18.09912109 37.76831055 C13.63419974 47.24800789 8.82248449 56.43399415 3.56884766 65.49707031 C1.15396046 69.70349683 -1.13216217 73.98286489 -3.4375 78.25 C-4.0975 78.25 -4.7575 78.25 -5.4375 78.25 C-5.65535156 79.07371094 -5.87320312 79.89742188 -6.09765625 80.74609375 C-7.77046081 85.12074591 -10.1447245 88.53363731 -12.875 92.3125 C-13.40488525 93.0540332 -13.93477051 93.79556641 -14.48071289 94.55957031 C-20.83476174 103.34108281 -27.68065941 111.66310584 -35.4375 119.25 C-36.241875 120.04019531 -37.04625 120.83039063 -37.875 121.64453125 C-53.27846182 136.17920026 -71.08567514 145.05608837 -92.4375 145.25 C-104.96612509 144.36014275 -104.96612509 144.36014275 -109.4375 139.25 C-109.4375 138.59 -109.4375 137.93 -109.4375 137.25 C-110.0975 137.25 -110.7575 137.25 -111.4375 137.25 C-113.7415948 132.6418104 -112.96823868 127.11750574 -111.6015625 122.30859375 C-109.00560964 115.62706408 -105.47660799 110.09395585 -101.109375 104.4296875 C-99.41543614 102.36379542 -99.41543614 102.36379542 -98.4375 100.25 C-97.7775 100.25 -97.1175 100.25 -96.4375 100.25 C-96.4375 99.59 -96.4375 98.93 -96.4375 98.25 C-95.07421875 96.91015625 -95.07421875 96.91015625 -93.125 95.3125 C-89.57750584 92.30933034 -86.30960747 89.13812928 -83.0625 85.8125 C-78.17262762 80.8413977 -72.9760774 76.4779902 -67.4375 72.25 C-65.87490026 71.02096014 -64.31239722 69.79179731 -62.75 68.5625 C-59.04675294 65.6895183 -55.27321691 62.94316293 -51.4375 60.25 C-57.9477301 62.20452546 -63.87710178 64.75006646 -69.875 67.9375 C-70.70394775 68.37521729 -71.53289551 68.81293457 -72.38696289 69.26391602 C-78.69953378 72.67757299 -84.06009309 76.48841065 -89.4375 81.25 C-93.14498299 84.25 -93.14498299 84.25 -95.4375 84.25 C-95.4375 84.91 -95.4375 85.57 -95.4375 86.25 C-96.8359375 87.58984375 -96.8359375 87.58984375 -98.8125 89.1875 C-111.09771858 99.7207772 -122.59695947 113.56354246 -127.4375 129.25 C-127.70949219 130.07242188 -127.98148438 130.89484375 -128.26171875 131.7421875 C-130.69820927 139.75289293 -131.57157465 147.952027 -132.4375 156.25 C-132.51986404 156.99341644 -132.60222809 157.73683289 -132.68708801 158.5027771 C-133.30248369 164.25981731 -133.63442942 169.96683724 -133.75390625 175.75390625 C-133.77473267 176.62777985 -133.79555908 177.50165344 -133.8170166 178.40200806 C-133.88227674 181.20542806 -133.94149049 184.00893164 -134 186.8125 C-134.04288649 188.74194338 -134.08577386 190.67138674 -134.12866211 192.60083008 C-134.4268506 206.48560233 -134.56088861 220.36192594 -134.4375 234.25 C-133.56847046 233.84080322 -133.56847046 233.84080322 -132.68188477 233.42333984 C-119.27949541 227.26230752 -105.14211717 226.95190301 -91.1875 231.8125 C-76.72055961 238.41273711 -67.12676098 249.67994138 -61.4375 264.25 C-61.025 265.28125 -60.6125 266.3125 -60.1875 267.375 C-59.16458931 271.29615766 -58.77792571 275.21864296 -58.4375 279.25 C-57.365 279.270625 -56.2925 279.29125 -55.1875 279.3125 C-46.92304119 280.32898424 -38.7331096 286.01987105 -33.4375 292.25 C-32.93734375 292.79527344 -32.4371875 293.34054687 -31.921875 293.90234375 C-28.10568228 298.13535364 -24.4375 302.29648342 -24.4375 308.25 C-208.37480419 309.79326358 -208.37480419 309.79326358 -338.4375 308.25 C-338.4851249 306.82975759 -338.51886274 305.40904581 -338.546875 303.98828125 C-338.56717773 303.19719971 -338.58748047 302.40611816 -338.60839844 301.59106445 C-338.25281851 296.72012748 -335.45916786 293.42191313 -332.3125 289.8125 C-330.4375 288.25 -330.4375 288.25 -328.4375 288.25 C-328.4375 287.59 -328.4375 286.93 -328.4375 286.25 C-327.7775 286.25 -327.1175 286.25 -326.4375 286.25 C-326.499375 284.97125 -326.56125 283.6925 -326.625 282.375 C-326.58217346 273.28149756 -323.69206626 265.84671978 -317.4375 259.25 C-310.10501835 252.1319184 -302.32050956 249.1683943 -292.125 249 C-288.48913733 249.0740753 -285.01523488 249.6098281 -281.4375 250.25 C-280.9528125 249.52554688 -280.468125 248.80109375 -279.96875 248.0546875 C-273.73296251 239.06076323 -267.41843659 233.63284641 -257.4375 229.25 C-256.674375 228.89808594 -255.91125 228.54617188 -255.125 228.18359375 C-251.93051374 227.07388123 -248.9915263 226.84830212 -245.625 226.5625 C-239.55361466 225.78216521 -236.3614157 224.44832126 -232.28125 219.90625 C-227.5113236 215.62140086 -221.58702819 215.99225616 -215.5625 216.125 C-214.77875 216.13402344 -213.995 216.14304687 -213.1875 216.15234375 C-211.27069945 216.17571937 -209.35405809 216.21158347 -207.4375 216.25 C-207.17195312 215.5075 -206.90640625 214.765 -206.6328125 214 C-203.98458181 207.90733854 -198.75050091 202.54016197 -193.00390625 199.22265625 C-184.7135411 196.08064571 -174.78529026 195.11957865 -166.4375 198.25 C-166.293125 197.486875 -166.14875 196.72375 -166 195.9375 C-165.4375 193.25 -165.4375 193.25 -164.4375 190.25 C-164.34275627 188.24393555 -164.30677792 186.23486192 -164.3046875 184.2265625 C-164.30275391 182.44765625 -164.30275391 182.44765625 -164.30078125 180.6328125 C-164.30464844 179.39273438 -164.30851563 178.15265625 -164.3125 176.875 C-164.30863281 175.64265625 -164.30476562 174.4103125 -164.30078125 173.140625 C-164.30207031 171.95210937 -164.30335938 170.76359375 -164.3046875 169.5390625 C-164.30637939 167.91025146 -164.30637939 167.91025146 -164.30810547 166.24853516 C-164.42854619 163.45749182 -164.80673843 160.96516816 -165.4375 158.25 C-165.75847656 156.79207031 -165.75847656 156.79207031 -166.0859375 155.3046875 C-169.03269245 141.328167 -169.03269245 141.328167 -174.41796875 128.1953125 C-175.47920342 126.17042796 -176.32630289 124.11695148 -177.1875 122 C-189.06559274 95.10097287 -215.71637754 73.38265143 -242.4375 62.25 C-251.32943863 58.92695264 -260.36371906 56.03206988 -269.4375 53.25 C-268.45652344 53.7346875 -267.47554688 54.219375 -266.46484375 54.71875 C-239.63544726 68.01950877 -239.63544726 68.01950877 -228.4375 76.25 C-226.66787917 77.46010836 -224.89704571 78.66844535 -223.125 79.875 C-217.61185616 83.74538179 -213.34382899 88.24919462 -209.0625 93.40625 C-207.36213244 95.38568022 -207.36213244 95.38568022 -205.01953125 97.58203125 C-202.32596506 100.36524715 -200.25573843 103.20728449 -198.125 106.4375 C-197.42761719 107.48292969 -196.73023438 108.52835937 -196.01171875 109.60546875 C-194.4375 112.25 -194.4375 112.25 -194.4375 114.25 C-193.7775 114.25 -193.1175 114.25 -192.4375 114.25 C-184.9905328 131.52696391 -181.74144336 146.37913111 -182.4375 165.25 C-206.1545574 171.00669938 -232.85390351 168.44543064 -255.4375 159.25 C-256.56671875 158.80140625 -257.6959375 158.3528125 -258.859375 157.890625 C-276.17940182 150.65361849 -291.52975238 140.67892283 -304.9921875 127.6484375 C-306.41125355 126.27539521 -307.84613675 124.91876087 -309.28125 123.5625 C-323.6007804 109.7256504 -333.64453127 93.23791205 -343.125 75.875 C-343.46418457 75.26285645 -343.80336914 74.65071289 -344.15283203 74.02001953 C-345.90362731 70.73089962 -346.4375 69.08677466 -346.4375 65.25 C-347.0975 65.25 -347.7575 65.25 -348.4375 65.25 C-363.34165955 26.67608914 -363.34165955 26.67608914 -365.4375 9.25 C-362.56782028 7.33688019 -361.5049273 6.92094232 -358.25390625 6.46875 C-357.42004395 6.34991455 -356.58618164 6.2310791 -355.72705078 6.10864258 C-354.37716064 5.9311145 -354.37716064 5.9311145 -353 5.75 C-352.05624512 5.62326904 -351.11249023 5.49653809 -350.14013672 5.3659668 C-347.24047214 4.98384609 -344.3391385 4.61678156 -341.4375 4.25 C-340.63070801 4.14123535 -339.82391602 4.0324707 -338.99267578 3.92041016 C-291.46481887 -2.42268808 -240.73597241 3.55880735 -200.48828125 30.8671875 C-199.18573309 31.74547712 -197.87161777 32.60703085 -196.54296875 33.4453125 C-195.14216948 34.3310638 -193.78380105 35.28342489 -192.4375 36.25 C-192.4375 36.91 -192.4375 37.57 -192.4375 38.25 C-191.88191406 38.48332031 -191.32632813 38.71664062 -190.75390625 38.95703125 C-176.9909275 46.63923356 -166.7281453 64.45183047 -160.4375 78.25 C-159.77511848 79.502276 -159.10881724 80.75249144 -158.4375 82 C-153.53236633 91.8307909 -150.01135193 102.59334992 -147.4375 113.25 C-147.045625 112.198125 -146.65375 111.14625 -146.25 110.0625 C-145.96769531 109.32 -145.68539062 108.5775 -145.39453125 107.8125 C-144.74407318 106.07086534 -144.1172286 104.320267 -143.51171875 102.5625 C-137.5005422 85.77492331 -128.75186032 70.70044863 -117.625 56.82421875 C-116.26187547 55.08082067 -116.26187547 55.08082067 -114.71875 52.3125 C-114.2959375 51.631875 -113.873125 50.95125 -113.4375 50.25 C-112.7775 50.25 -112.1175 50.25 -111.4375 50.25 C-111.17195312 49.65832031 -110.90640625 49.06664062 -110.6328125 48.45703125 C-99.55516786 28.00321026 -68.44405598 13.00769883 -47.2265625 6.30859375 C-41.03182304 4.5778985 -34.78469145 3.27283508 -28.4375 2.25 C-26.91588257 1.99404053 -26.91588257 1.99404053 -25.36352539 1.73291016 C-16.86095627 0.39406345 -8.60037261 -0.06437491 0 0 Z " fill="#51A934" transform="translate(417.4375,95.75)"/>
<path d="M0 0 C1.93782349 -0.0009668 1.93782349 -0.0009668 3.91479492 -0.00195312 C12.76893383 0.04709719 21.30047079 0.50468951 30 2.1875 C31.46055379 6.02959373 30.49637507 8.57787478 29.1875 12.375 C28.65189453 13.97408203 28.65189453 13.97408203 28.10546875 15.60546875 C27 18.1875 27 18.1875 25 19.1875 C25.33 17.99125 25.66 16.795 26 15.5625 C26.89265823 12.02958503 27.18296045 8.84670891 27 5.1875 C26.34 5.1875 25.68 5.1875 25 5.1875 C25 6.1775 25 7.1675 25 8.1875 C24.01 8.1875 23.02 8.1875 22 8.1875 C21.505 5.7125 21.505 5.7125 21 3.1875 C20.08299316 3.19273682 19.16598633 3.19797363 18.22119141 3.20336914 C14.77326816 3.22055437 11.32539137 3.23301924 7.87744141 3.24243164 C6.39371008 3.24741708 4.90998354 3.25420785 3.42626953 3.26293945 C-4.77812616 3.30996397 -12.84300472 3.2091355 -21 2.1875 C-21 1.8575 -21 1.5275 -21 1.1875 C-14.03242637 -0.10855164 -7.06855656 -0.00360388 0 0 Z " fill="#8BC179" transform="translate(417,95.8125)"/>
<path d="M0 0 C0.66 1.32 1.32 2.64 2 4 C-1.17320782 7.53586014 -3.16743695 9.58578031 -8 10 C-8.33 11.65 -8.66 13.3 -9 15 C-9.66 15 -10.32 15 -11 15 C-11.33 15.99 -11.66 16.98 -12 18 C-13.6396721 19.36639342 -15.31110128 20.6949419 -17 22 C-19.79245093 24.45817955 -19.79245093 24.45817955 -22 27 C-22 27.99 -22 28.98 -22 30 C-22.61875 30.2475 -23.2375 30.495 -23.875 30.75 C-26.13746494 31.82143729 -26.13746494 31.82143729 -27 34 C-28.24508396 36.49016793 -29.46716796 36.98686718 -32 38 C-30.4197475 34.52016937 -28.34170645 31.6226636 -26.0625 28.5625 C-24.01095299 25.8053742 -22.07821171 23.13672982 -20.37109375 20.15234375 C-19.91863281 19.44207031 -19.46617187 18.73179687 -19 18 C-18.34 18 -17.68 18 -17 18 C-16.73445313 17.40832031 -16.46890625 16.81664062 -16.1953125 16.20703125 C-12.65487123 9.66994198 -5.57473748 4.76386658 0 0 Z " fill="#6EB059" transform="translate(323,128)"/>
<path d="M0 0 C1 2 1 2 0.3125 4.5625 C-1 7 -1 7 -3.125 7.8125 C-3.74375 7.874375 -4.3625 7.93625 -5 8 C-5 9.32 -5 10.64 -5 12 C-6.84464844 12.07347656 -6.84464844 12.07347656 -8.7265625 12.1484375 C-10.35939566 12.22351029 -11.99220712 12.29905615 -13.625 12.375 C-14.43324219 12.4059375 -15.24148437 12.436875 -16.07421875 12.46875 C-20.68913757 12.69386799 -24.70988739 13.1144528 -29 15 C-30.38576923 16.62332967 -31.72641268 18.28724465 -33 20 C-33.99 20.33 -34.98 20.66 -36 21 C-36.33 21.66 -36.66 22.32 -37 23 C-39.625 23.34375 -39.625 23.34375 -43 23.5 C-48.55498254 23.8368512 -53.61364636 24.63058806 -59 26 C-59 26.66 -59 27.32 -59 28 C-59.99 27.67 -60.98 27.34 -62 27 C-57.36664031 22.36664031 -51.23182329 21.86515852 -45 21.25 C-38.9974314 20.50609193 -35.876137 19.14513364 -31.84375 14.65625 C-27.0738236 10.37140086 -21.14952819 10.74225616 -15.125 10.875 C-13.949375 10.88853516 -13.949375 10.88853516 -12.75 10.90234375 C-10.83319945 10.92571937 -8.91655809 10.96158347 -7 11 C-6.72414062 10.24332031 -6.44828125 9.48664063 -6.1640625 8.70703125 C-4.62976031 5.13900636 -2.56233179 2.89948071 0 0 Z " fill="#8CBF7B" transform="translate(217,301)"/>
<path d="M0 0 C1.94724976 -0.0009668 1.94724976 -0.0009668 3.93383789 -0.00195312 C11.66843597 0.04159141 19.30427854 0.40915015 27 1.1875 C27 1.5175 27 1.8475 27 2.1875 C6.03074612 3.65902659 -14.99327128 3.28214458 -36 3.1875 C-36 2.8575 -36 2.5275 -36 2.1875 C-23.99749635 0.58906907 -12.09825617 -0.01305861 0 0 Z " fill="#8BBD7A" transform="translate(112,97.8125)"/>
<path d="M0 0 C0.33 0 0.66 0 1 0 C1.05429959 1.74965358 1.09292823 3.49979787 1.125 5.25 C1.14820312 6.22453125 1.17140625 7.1990625 1.1953125 8.203125 C0.99862781 11.0196498 0.44568916 12.60949036 -1 15 C-2.32 15 -3.64 15 -5 15 C-5.93380961 19.53140653 -5.93380961 19.53140653 -5 24 C-6.3125 25.5 -6.3125 25.5 -8 27 C-8.99 27 -9.98 27 -11 27 C-11.33 27.99 -11.66 28.98 -12 30 C-12.45507591 23.51516832 -11.71080066 20.3600454 -8 15 C-5.875 12.5625 -5.875 12.5625 -4 11 C-3.34 11 -2.68 11 -2 11 C-2 10.34 -2 9.68 -2 9 C-1.34 9 -0.68 9 0 9 C0 6.03 0 3.06 0 0 Z " fill="#66AC50" transform="translate(91,373)"/>
<path d="M0 0 C0.66 0.33 1.32 0.66 2 1 C1.83923477 1.5692218 1.67846954 2.1384436 1.51283264 2.72491455 C0.99640479 5.01594948 0.84295704 7.05637245 0.79467773 9.40136719 C0.77473251 10.2619574 0.75478729 11.12254761 0.73423767 12.00921631 C0.71752518 12.92914368 0.70081268 13.84907104 0.68359375 14.796875 C0.66281265 15.74564514 0.64203156 16.69441528 0.62062073 17.67193604 C0.55532066 20.69788482 0.49633112 23.7239192 0.4375 26.75 C0.3942962 28.80339421 0.35068131 30.85677982 0.30664062 32.91015625 C0.19965927 37.9400168 0.09833677 42.96996332 0 48 C-0.33 48 -0.66 48 -1 48 C-2.09085145 24.12311862 -2.09085145 24.12311862 -2.1875 12.75 C-2.20039063 12.03150879 -2.21328125 11.31301758 -2.2265625 10.57275391 C-2.23422167 6.60051814 -1.7534327 3.57617103 0 0 Z " fill="#91C481" transform="translate(283,257)"/>
<path d="M0 0 C1.32 0.66 2.64 1.32 4 2 C-5.98825172 15.11527277 -5.98825172 15.11527277 -10 19 C-10.66 19 -11.32 19 -12 19 C-12 18.01 -12 17.02 -12 16 C-11.01 16 -10.02 16 -9 16 C-8.87625 14.906875 -8.7525 13.81375 -8.625 12.6875 C-8 9 -8 9 -6 6 C-4 5 -4 5 -1 4 C-0.26676204 1.98491642 -0.26676204 1.98491642 0 0 Z " fill="#6BB255" transform="translate(396,192)"/>
<path d="M0 0 C-0.66 0 -1.32 0 -2 0 C-1.67 1.32 -1.34 2.64 -1 4 C-2.1446875 4.061875 -2.1446875 4.061875 -3.3125 4.125 C-6.32405113 4.77823609 -6.32405113 4.77823609 -7.8125 8.0625 C-8.204375 9.031875 -8.59625 10.00125 -9 11 C-9.33 10.34 -9.66 9.68 -10 9 C-10.598125 9.33 -11.19625 9.66 -11.8125 10 C-14 11 -14 11 -17 11 C-17 11.66 -17 12.32 -17 13 C-17.66 12.67 -18.32 12.34 -19 12 C-7.57305936 -2.52435312 -7.57305936 -2.52435312 0 0 Z " fill="#6FB35A" transform="translate(115,348)"/>
<path d="M0 0 C0.66 0 1.32 0 2 0 C2.05425013 2.87525669 2.09379277 5.74947646 2.125 8.625 C2.14175781 9.43324219 2.15851563 10.24148438 2.17578125 11.07421875 C2.21420986 15.80093815 1.82737094 19.55387702 0 24 C-7.52719602 24.25515919 -14.58851545 23.28297723 -22 22 C-22 21.67 -22 21.34 -22 21 C-14.80798031 20.11298424 -8.93171463 19.73386253 -2 22 C-1.7834375 20.8553125 -1.7834375 20.8553125 -1.5625 19.6875 C-1 17 -1 17 0 14 C0.06970052 11.60509014 0.08448003 9.20832309 0.0625 6.8125 C0.05347656 5.54019531 0.04445312 4.26789063 0.03515625 2.95703125 C0.02355469 1.98121094 0.01195312 1.00539063 0 0 Z " fill="#7AB06A" transform="translate(253,272)"/>
<path d="M0 0 C1 2 1 2 0.0625 5.125 C-0.288125 6.07375 -0.63875 7.0225 -1 8 C-1.66 8 -2.32 8 -3 8 C-3.1546875 9.918125 -3.1546875 9.918125 -3.3125 11.875 C-3.48828125 14.0546875 -3.48828125 14.0546875 -4 16 C-4.99 16.66 -5.98 17.32 -7 18 C-7.69356423 20.32548007 -8.36149212 22.65880445 -9 25 C-9.66 25.33 -10.32 25.66 -11 26 C-11.98591178 23.40401555 -12.10329876 22.27761185 -11.11962891 19.6340332 C-10.65991699 18.78156006 -10.20020508 17.92908691 -9.7265625 17.05078125 C-9.2315625 16.12072266 -8.7365625 15.19066406 -8.2265625 14.23242188 C-7.69804687 13.26884766 -7.16953125 12.30527344 -6.625 11.3125 C-6.10421875 10.33732422 -5.5834375 9.36214844 -5.046875 8.35742188 C-1.20365367 1.20365367 -1.20365367 1.20365367 0 0 Z " fill="#80B86A" transform="translate(290,166)"/>
<path d="M0 0 C6.60232533 6.2250496 11.72532446 13.4702499 15 22 C14.67 22.66 14.34 23.32 14 24 C10.09052297 20.48147067 8.71851494 17.32135596 7.1875 12.375 C6.1732052 9.77573431 6.1732052 9.77573431 3.4375 8.625 C1 7 1 7 0.1875 3.3125 C0.125625 2.219375 0.06375 1.12625 0 0 Z " fill="#73AE5E" transform="translate(241,150)"/>
<path d="M0 0 C4.44689714 1.6546594 8.56942468 3.77680387 12.75 6 C13.43449219 6.35578125 14.11898437 6.7115625 14.82421875 7.078125 C19.88081199 9.76162399 19.88081199 9.76162399 21 12 C19.56163249 11.88541307 18.12429034 11.75790884 16.6875 11.625 C15.48673828 11.52058594 15.48673828 11.52058594 14.26171875 11.4140625 C12 11 12 11 9 9 C9 8.01 9 7.02 9 6 C7.35 5.67 5.7 5.34 4 5 C3.67 4.01 3.34 3.02 3 2 C2.01 2 1.02 2 0 2 C0 1.34 0 0.68 0 0 Z " fill="#6EAD5A" transform="translate(159,155)"/>
<path d="M0 0 C1.11375 0.1546875 1.11375 0.1546875 2.25 0.3125 C-0.22457625 4.0738559 -2.75278468 7.79600516 -5.3125 11.5 C-6.18068359 12.75876953 -6.18068359 12.75876953 -7.06640625 14.04296875 C-8.5159822 15.99703749 -9.97579315 17.65693312 -11.75 19.3125 C-10 12.5625 -10 12.5625 -7.75 10.3125 C-7.564375 9.1678125 -7.564375 9.1678125 -7.375 8 C-6.36741828 3.66739861 -4.62115925 0.52513173 0 0 Z " fill="#71B35B" transform="translate(306.75,192.6875)"/>
<path d="M0 0 C0.33 0 0.66 0 1 0 C1.75363052 3.35091771 2.11979937 6.43109812 2.09765625 9.86328125 C2.09443359 10.74951172 2.09121094 11.63574219 2.08789062 12.54882812 C2.07951172 13.46083984 2.07113281 14.37285156 2.0625 15.3125 C2.05798828 16.24384766 2.05347656 17.17519531 2.04882812 18.13476562 C2.03709234 20.42324373 2.02067363 22.71158808 2 25 C0.56530873 25.34742753 -0.87126653 25.68708143 -2.30859375 26.0234375 C-3.10837646 26.21341309 -3.90815918 26.40338867 -4.73217773 26.59912109 C-7.39328806 27.06952083 -9.43290553 26.82809499 -12 26 C-11.67 24.35 -11.34 22.7 -11 21 C-10.01 21.33 -9.02 21.66 -8 22 C-8 22.33 -8 22.66 -8 23 C-5.03 23.33 -2.06 23.66 1 24 C0.67 16.08 0.34 8.16 0 0 Z " fill="#94C782" transform="translate(233,236)"/>
<path d="M0 0 C0.66 0.33 1.32 0.66 2 1 C0.21771147 4.48404929 -1.57737482 7.96134232 -3.375 11.4375 C-4.13683594 12.92733398 -4.13683594 12.92733398 -4.9140625 14.44726562 C-5.40390625 15.39150391 -5.89375 16.33574219 -6.3984375 17.30859375 C-6.84880371 18.18314209 -7.29916992 19.05769043 -7.76318359 19.95874023 C-9 22 -9 22 -11 23 C-10.34 19.37 -9.68 15.74 -9 12 C-8.01 11.67 -7.02 11.34 -6 11 C-6 10.01 -6 9.02 -6 8 C-5.01 8 -4.02 8 -3 8 C-2.690625 7.05125 -2.38125 6.1025 -2.0625 5.125 C-1 2 -1 2 0 0 Z " fill="#78B664" transform="translate(426,147)"/>
<path d="M0 0 C0.66 0.33 1.32 0.66 2 1 C1.80664062 1.62003906 1.61328125 2.24007812 1.4140625 2.87890625 C-0.93486178 10.86757446 -2.05330818 18.74707488 -3 27 C-3.33 27 -3.66 27 -4 27 C-5.56290855 17.43424649 -4.67221443 8.63033495 0 0 Z " fill="#71B15C" transform="translate(288,224)"/>
<path d="M0 0 C2.64 0.33 5.28 0.66 8 1 C7.01 1.66 6.02 2.32 5 3 C4.33484375 3.45117188 3.6696875 3.90234375 2.984375 4.3671875 C-1.58242301 7.44897777 -6.17906177 10.333098 -11 13 C-11 12.01 -11 11.02 -11 10 C-10.01 10 -9.02 10 -8 10 C-8 9.01 -8 8.02 -8 7 C-6.68 7 -5.36 7 -4 7 C-3.71125 6.401875 -3.4225 5.80375 -3.125 5.1875 C-2 3 -2 3 0 0 Z " fill="#61A748" transform="translate(340,162)"/>
<path d="M0 0 C0.66 0.66 1.32 1.32 2 2 C1.67 2.66 1.34 3.32 1 4 C0.34 4 -0.32 4 -1 4 C-1 4.99 -1 5.98 -1 7 C-0.01 7 0.98 7 2 7 C2 7.66 2 8.32 2 9 C-1.1588274 7.81543972 -4.21274705 6.46399962 -7.25 5 C-7.93578125 4.67 -8.6215625 4.34 -9.328125 4 C-11 3 -11 3 -12 1 C-11.07767578 1.01740234 -11.07767578 1.01740234 -10.13671875 1.03515625 C-8.92435547 1.04869141 -8.92435547 1.04869141 -7.6875 1.0625 C-6.88699219 1.07410156 -6.08648437 1.08570313 -5.26171875 1.09765625 C-2.83138666 1.09657855 -2.83138666 1.09657855 0 0 Z " fill="#6EB258" transform="translate(150,241)"/>
<path d="M0 0 C1.32 0.33 2.64 0.66 4 1 C-0.03523352 5.81123996 -4.04467233 10.13242719 -9 14 C-9.66 13.67 -10.32 13.34 -11 13 C-10.34 10.69 -9.68 8.38 -9 6 C-6.03 6.495 -6.03 6.495 -3 7 C-3 6.01 -3 5.02 -3 4 C-2.01 4 -1.02 4 0 4 C0 2.68 0 1.36 0 0 Z " fill="#86BB73" transform="translate(380,211)"/>
<path d="M0 0 C1.32 0.33 2.64 0.66 4 1 C4 1.66 4 2.32 4 3 C4.61875 3.04125 5.2375 3.0825 5.875 3.125 C6.57625 3.41375 7.2775 3.7025 8 4 C8.70381157 5.98723268 9.3711811 7.98777953 10 10 C10.99 10.33 11.98 10.66 13 11 C13 12.65 13 14.3 13 16 C9.36911874 13.26571113 6.50894174 10.43501123 3.6875 6.875 C2.99011719 6.00617188 2.29273437 5.13734375 1.57421875 4.2421875 C0 2 0 2 0 0 Z " fill="#76B662" transform="translate(92,199)"/>
<path d="M0 0 C0.73814941 0.08604492 1.47629883 0.17208984 2.23681641 0.26074219 C5.79511433 0.74308375 7.90467338 1.22811559 10.9375 3.25 C10.37804687 3.1778125 9.81859375 3.105625 9.2421875 3.03125 C-3.54821093 1.38391859 -3.54821093 1.38391859 -16.0625 3.25 C-17.45689664 3.31665376 -18.85419875 3.33538199 -20.25 3.3125 C-22.1371875 3.2815625 -22.1371875 3.2815625 -24.0625 3.25 C-16.91306167 -1.51629222 -8.22275291 -0.9636723 0 0 Z " fill="#84B774" transform="translate(313.0625,324.75)"/>
<path d="M0 0 C0.56203125 0.22558594 1.1240625 0.45117188 1.703125 0.68359375 C0.218125 2.16859375 0.218125 2.16859375 -1.296875 3.68359375 C-0.306875 4.34359375 0.683125 5.00359375 1.703125 5.68359375 C1.703125 6.34359375 1.703125 7.00359375 1.703125 7.68359375 C-3.07280324 7.77543852 -6.99581399 7.83412425 -11.296875 5.68359375 C-9.89135201 4.64747104 -8.47195806 3.6301445 -7.046875 2.62109375 C-6.25796875 2.05261719 -5.4690625 1.48414063 -4.65625 0.8984375 C-2.296875 -0.31640625 -2.296875 -0.31640625 0 0 Z " fill="#70B45A" transform="translate(229.296875,294.31640625)"/>
<path d="M0 0 C0.9075 0.391875 1.815 0.78375 2.75 1.1875 C2.75 1.8475 2.75 2.5075 2.75 3.1875 C4.07 3.1875 5.39 3.1875 6.75 3.1875 C6.75 4.1775 6.75 5.1675 6.75 6.1875 C1.47250715 5.64898032 -2.50645564 4.41406164 -7.25 2.1875 C-4.52596974 -0.53653026 -3.86366821 -0.96591705 0 0 Z " fill="#65B14E" transform="translate(159.25,248.8125)"/>
<path d="M0 0 C0.33 0 0.66 0 1 0 C1.05429959 1.74965358 1.09292823 3.49979787 1.125 5.25 C1.14820312 6.22453125 1.17140625 7.1990625 1.1953125 8.203125 C0.99290767 11.10156211 0.6820076 12.64518936 -1 15 C-2.9453125 16.046875 -2.9453125 16.046875 -5.125 16.75 C-6.21167969 17.11351562 -6.21167969 17.11351562 -7.3203125 17.484375 C-7.87460938 17.65453125 -8.42890625 17.8246875 -9 18 C-7.71480435 15.13302508 -6.42870746 13.02392288 -4 11 C-3.34 11 -2.68 11 -2 11 C-2 10.34 -2 9.68 -2 9 C-1.34 9 -0.68 9 0 9 C0 6.03 0 3.06 0 0 Z " fill="#8FC37E" transform="translate(91,373)"/>
<path d="M0 0 C0.99 0 1.98 0 3 0 C1.70700306 2.88437779 0.34058637 4.87219421 -2 7 C-1.67 7.66 -1.34 8.32 -1 9 C-1.928125 9.12375 -1.928125 9.12375 -2.875 9.25 C-5.67505419 10.23825442 -5.74113932 11.40359985 -7 14 C-9.125 15.25 -9.125 15.25 -11 16 C-9.38677027 12.44413762 -7.24743046 9.45249622 -4.9375 6.3125 C-4.22464844 5.33925781 -3.51179688 4.36601562 -2.77734375 3.36328125 C-1 1 -1 1 0 0 Z " fill="#6BAB56" transform="translate(302,150)"/>
<path d="M0 0 C1.7290774 -0.02725341 3.45828176 -0.04650987 5.1875 -0.0625 C6.15042969 -0.07410156 7.11335937 -0.08570313 8.10546875 -0.09765625 C10.85576513 -0.00486622 13.32479591 0.37888315 16 1 C16 1.66 16 2.32 16 3 C19.3 3.33 22.6 3.66 26 4 C25.34 4.66 24.68 5.32 24 6 C21.56982422 5.76806641 21.56982422 5.76806641 18.5546875 5.1015625 C17.47832031 4.86953125 16.40195313 4.6375 15.29296875 4.3984375 C14.16503906 4.14320313 13.03710938 3.88796875 11.875 3.625 C10.73933594 3.3775 9.60367188 3.13 8.43359375 2.875 C5.61996862 2.26025837 2.80914365 1.63485257 0 1 C0 0.67 0 0.34 0 0 Z " fill="#82B96E" transform="translate(170,257)"/>
<path d="M0 0 C1.98 0.66 3.96 1.32 6 2 C3.50175511 4.81158409 0.721524 6.44837831 -2.5625 8.25 C-4.01849609 9.06210938 -4.01849609 9.06210938 -5.50390625 9.890625 C-6.32761719 10.25671875 -7.15132813 10.6228125 -8 11 C-8.66 10.67 -9.32 10.34 -10 10 C-9.195625 9.773125 -8.39125 9.54625 -7.5625 9.3125 C-6.716875 8.879375 -5.87125 8.44625 -5 8 C-4.10613836 5.45224694 -4.10613836 5.45224694 -4 3 C-2.35 3.33 -0.7 3.66 1 4 C0.67 2.68 0.34 1.36 0 0 Z " fill="#80BB6F" transform="translate(362,224)"/>
<path d="M0 0 C0 1.32 0 2.64 0 4 C-0.78375 4.226875 -1.5675 4.45375 -2.375 4.6875 C-5.23869774 5.74401615 -5.23869774 5.74401615 -5.9375 8.5625 C-6.288125 9.366875 -6.63875 10.17125 -7 11 C-10.125 11.8125 -10.125 11.8125 -13 12 C-2.93659942 0 -2.93659942 0 0 0 Z " fill="#73B260" transform="translate(342,176)"/>
<path d="M0 0 C-0.639375 0.103125 -1.27875 0.20625 -1.9375 0.3125 C-2.618125 0.539375 -3.29875 0.76625 -4 1 C-4.33 1.99 -4.66 2.98 -5 4 C-10.58465714 5.79506837 -16.17181635 6.4873357 -22 7 C-19.30907163 4.30907163 -16.22213506 3.53411769 -12.6875 2.375 C-12.02298828 2.14554687 -11.35847656 1.91609375 -10.67382812 1.6796875 C-7.01112168 0.46240821 -3.86331186 -0.28395716 0 0 Z " fill="#89BF77" transform="translate(379,101)"/>
<path d="M0 0 C7.57142857 4 7.57142857 4 10 8 C7.33333333 8 4.66666667 8 2 8 C1.33333333 5.33333333 0.66666667 2.66666667 0 0 Z " fill="#5CA945" transform="translate(335,334)"/>
<path d="M0 0 C1.9375 0.5625 1.9375 0.5625 4 2 C4.75 5.625 4.75 5.625 5 9 C5.66 9 6.32 9 7 9 C7.33 11.97 7.66 14.94 8 18 C4.21545515 12.32318272 1.65307967 6.61231869 0 0 Z " fill="#7FB96C" transform="translate(240,215)"/>
<path d="M0 0 C0 0.99 0 1.98 0 3 C-1.0725 3.226875 -2.145 3.45375 -3.25 3.6875 C-7.37218701 5.13026545 -8.64414523 6.41910075 -11 10 C-11.66 9.67 -12.32 9.34 -13 9 C-12.67 8.67 -12.34 8.34 -12 8 C-12.66 7.34 -13.32 6.68 -14 6 C-13.34 5.67 -12.68 5.34 -12 5 C-11.67 4.01 -11.34 3.02 -11 2 C-9.6078125 2.061875 -9.6078125 2.061875 -8.1875 2.125 C-4.72190539 1.98909433 -3.24974144 0 0 0 Z " fill="#88C376" transform="translate(378,148)"/>
<path d="M0 0 C1 2 1 2 1 6 C0.34 6 -0.32 6 -1 6 C-1.33 7.98 -1.66 9.96 -2 12 C-2.66 12 -3.32 12 -4 12 C-4.33 15.63 -4.66 19.26 -5 23 C-5.33 23 -5.66 23 -6 23 C-6.82963941 14.666733 -4.73064317 8.42459149 -1 1 C-0.67 0.67 -0.34 0.34 0 0 Z " fill="#8AC07B" transform="translate(311,208)"/>
<path d="M0 0 C7.35012956 0.57648075 14.01424576 2.71046164 21 5 C17.2865136 6.37536533 15.57093047 5.42837219 12 4 C8.64494474 3.75950068 8.64494474 3.75950068 5.1875 3.875 C4.02605469 3.89304687 2.86460937 3.91109375 1.66796875 3.9296875 C0.34732422 3.96449219 0.34732422 3.96449219 -1 4 C-1.33 3.34 -1.66 2.68 -2 2 C-1.34 2 -0.68 2 0 2 C0 1.34 0 0.68 0 0 Z " fill="#81B96D" transform="translate(162,104)"/>
<path d="M0 0 C2.45823172 3.68734758 3.01242616 6.69699971 4 11 C4.66 10.01 5.32 9.02 6 8 C6 10.31 6 12.62 6 15 C5.01 15.33 4.02 15.66 3 16 C3 15.01 3 14.02 3 13 C2.01 12.67 1.02 12.34 0 12 C0 8.04 0 4.08 0 0 Z " fill="#98CB87" transform="translate(266,198)"/>
<path d="M0 0 C-1.32 0.33 -2.64 0.66 -4 1 C-4 1.99 -4 2.98 -4 4 C-6.97 3.67 -9.94 3.34 -13 3 C-13.33 5.31 -13.66 7.62 -14 10 C-15.42944945 7.64561267 -16.08661261 6.51967567 -15.625 3.75 C-15.41875 3.1725 -15.2125 2.595 -15 2 C-13.33333333 1.66666667 -11.66666667 1.33333333 -10 1 C-9.175 0.814375 -8.35 0.62875 -7.5 0.4375 C-4.94832866 -0.00904248 -2.58483061 -0.0738523 0 0 Z " fill="#95C985" transform="translate(68,102)"/>
<path d="M0 0 C1.60938465 2.41407698 2.65490738 4.34044437 3.6875 7 C3.95949219 7.680625 4.23148437 8.36125 4.51171875 9.0625 C5 11 5 11 4 14 C3.34 13.67 2.68 13.34 2 13 C1.67 13.66 1.34 14.32 1 15 C0.06576355 11.98968256 -0.04449911 11.13349732 1 8 C0.01 7.34 -0.98 6.68 -2 6 C-1.34 5.34 -0.68 4.68 0 4 C0 2.68 0 1.36 0 0 Z " fill="#74B55D" transform="translate(259,179)"/>
<path d="M0 0 C0.66 0 1.32 0 2 0 C2 1.32 2 2.64 2 4 C1.34 4 0.68 4 0 4 C0 4.66 0 5.32 0 6 C-2.30368736 7.06652192 -4.64018187 8.06421005 -7 9 C-7.66 8.67 -8.32 8.34 -9 8 C-9 7.01 -9 6.02 -9 5 C-8.071875 5.103125 -7.14375 5.20625 -6.1875 5.3125 C-5.135625 5.209375 -4.08375 5.10625 -3 5 C-1.21030974 2.57327433 -1.21030974 2.57327433 0 0 Z " fill="#7AB666" transform="translate(139,341)"/>
<path d="M0 0 C0.33 1.32 0.66 2.64 1 4 C0.01 4.33 -0.98 4.66 -2 5 C-2.33 5.99 -2.66 6.98 -3 8 C-3.66 8 -4.32 8 -5 8 C-5 8.66 -5 9.32 -5 10 C-6.32 10 -7.64 10 -9 10 C-9 9.34 -9 8.68 -9 8 C-8.34 8 -7.68 8 -7 8 C-7 7.34 -7 6.68 -7 6 C-5.46875 4.4921875 -5.46875 4.4921875 -3.5 2.875 C-2.8503125 2.33617187 -2.200625 1.79734375 -1.53125 1.2421875 C-0.77328125 0.62730469 -0.77328125 0.62730469 0 0 Z " fill="#78B367" transform="translate(328,188)"/>
<path d="M0 0 C7.89723556 -0.48350422 15.33532703 1.32335279 23 3 C23 3.33 23 3.66 23 4 C21.27119018 4.05449838 19.54187288 4.09301688 17.8125 4.125 C16.84957031 4.14820312 15.88664063 4.17140625 14.89453125 4.1953125 C11.84478215 3.98952646 9.78421134 3.20893387 7 2 C4.67402489 1.6186926 2.34087842 1.27539746 0 1 C0 0.67 0 0.34 0 0 Z " fill="#91C480" transform="translate(139,100)"/>
<path d="M0 0 C1 2 1 2 0.3125 4.5625 C-1 7 -1 7 -3.125 7.8125 C-3.74375 7.874375 -4.3625 7.93625 -5 8 C-5 9.32 -5 10.64 -5 12 C-5.66 12 -6.32 12 -7 12 C-6.67566492 6.64847115 -3.50295176 3.71719957 0 0 Z " fill="#80BB6F" transform="translate(217,301)"/>
<path d="M0 0 C4.20763224 1.5027258 5.8027758 4.23332995 8 8 C8 8.66 8 9.32 8 10 C6.68 10 5.36 10 4 10 C3.67 8.68 3.34 7.36 3 6 C2.01 6 1.02 6 0 6 C0 4.02 0 2.04 0 0 Z " fill="#71B25B" transform="translate(210,192)"/>
<path d="M0 0 C0.99 0.33 1.98 0.66 3 1 C2.67 1.66 2.34 2.32 2 3 C1.34 3 0.68 3 0 3 C-0.268125 3.928125 -0.53625 4.85625 -0.8125 5.8125 C-1.91148371 8.76240366 -2.62418561 10.05615186 -5 12 C-5.33 10.35 -5.66 8.7 -6 7 C-5.01 7 -4.02 7 -3 7 C-2.87625 6.21625 -2.7525 5.4325 -2.625 4.625 C-2 2 -2 2 0 0 Z " fill="#6FAE5D" transform="translate(412,171)"/>
<path d="M0 0 C2.86476895 0.63661532 4.56043256 1.36795116 6.2578125 3.80859375 C7.33945344 5.86976268 8.32048955 7.77173522 9 10 C8.67 10.99 8.34 11.98 8 13 C6.66388095 11.0226631 5.33100742 9.04327287 4 7.0625 C3.6184375 6.49853516 3.236875 5.93457031 2.84375 5.35351562 C0 1.11328125 0 1.11328125 0 0 Z " fill="#86BE78" transform="translate(230,200)"/>
<path d="M0 0 C2.9375 0.75 2.9375 0.75 6 2 C6.875 4.125 6.875 4.125 7 6 C7.99 6 8.98 6 10 6 C9.67 7.32 9.34 8.64 9 10 C7.49702124 8.52386015 5.99768715 7.04400843 4.5 5.5625 C3.6646875 4.73878906 2.829375 3.91507813 1.96875 3.06640625 C0 1 0 1 0 0 Z " fill="#73B35E" transform="translate(109,219)"/>
<path d="M0 0 C0.66 0.33 1.32 0.66 2 1 C1.401875 1.20625 0.80375 1.4125 0.1875 1.625 C-2.81018767 3.50926082 -3.61361776 5.81132084 -5 9 C-7.13093906 7.93453047 -8.36587557 6.70840281 -10 5 C-8.38007835 4.13624104 -6.75388139 3.28424146 -5.125 2.4375 C-4.22007812 1.96183594 -3.31515625 1.48617187 -2.3828125 0.99609375 C-1.20332031 0.50302734 -1.20332031 0.50302734 0 0 Z " fill="#7CB86A" transform="translate(355,108)"/>
<path d="M0 0 C2.79872437 2.52788007 4.45773019 4.20411134 5 8 C5.66 8 6.32 8 7 8 C7.33 9.32 7.66 10.64 8 12 C7.34 12 6.68 12 6 12 C6 11.34 6 10.68 6 10 C5.38125 9.835 4.7625 9.67 4.125 9.5 C0.72243051 7.09818625 0.77387974 3.99837866 0 0 Z " fill="#7AB665" transform="translate(218,202)"/>
<path d="M0 0 C2.93200474 2.85276137 5.64315404 5.65079784 8 9 C7.67 9.66 7.34 10.32 7 11 C4.0625 9.4375 4.0625 9.4375 1 7 C0.125 3.25 0.125 3.25 0 0 Z " fill="#83BB6F" transform="translate(241,150)"/>
<path d="M0 0 C3.11373372 1.49920512 6.12228205 3.08152136 9 5 C9 5.66 9 6.32 9 7 C3.25 6.125 3.25 6.125 1 5 C0.375 2.4375 0.375 2.4375 0 0 Z " fill="#78B263" transform="translate(216,127)"/>
<path d="M0 0 C-3.06301002 3.06301002 -6.7908485 3.42668454 -11 4 C-14.0625 3.625 -14.0625 3.625 -16 3 C-10.92216681 0.07048085 -5.75857366 -0.1371089 0 0 Z " fill="#8FC47F" transform="translate(395,98)"/>
<path d="M0 0 C1.125 1.75 1.125 1.75 2 4 C1.1875 5.875 1.1875 5.875 0 8 C-0.38290462 9.99110401 -0.72604615 11.99100513 -1 14 C-1.33 14 -1.66 14 -2 14 C-2.05410687 12.22950311 -2.09284119 10.45853151 -2.125 8.6875 C-2.14820313 7.70136719 -2.17140625 6.71523437 -2.1953125 5.69921875 C-2 3 -2 3 0 0 Z " fill="#70B35D" transform="translate(274,199)"/>
<path d="M0 0 C4.19115285 0.58210456 5.37542083 1.28156562 9 4 C5.37 4.33 1.74 4.66 -2 5 C-2 4.34 -2 3.68 -2 3 C-1.34 3 -0.68 3 0 3 C0 2.01 0 1.02 0 0 Z " fill="#7EB869" transform="translate(150,151)"/>
<path d="M0 0 C0.99 0.33 1.98 0.66 3 1 C2.02501855 2.5027237 1.04490611 4.00211963 0.0625 5.5 C-0.48277344 6.3353125 -1.02804687 7.170625 -1.58984375 8.03125 C-2.05519531 8.6809375 -2.52054687 9.330625 -3 10 C-3.33 10 -3.66 10 -4 10 C-4 8.35 -4 6.7 -4 5 C-3.34 5 -2.68 5 -2 5 C-1.34 3.35 -0.68 1.7 0 0 Z " fill="#80B76C" transform="translate(404,183)"/>
<path d="M0 0 C4.86896303 0.59619955 9.32790951 1.56976822 14 3 C14 3.99 14 4.98 14 6 C9.27775484 4.46527032 4.64144669 2.76054874 0 1 C0 0.67 0 0.34 0 0 Z " fill="#73AF5F" transform="translate(169,155)"/>
<path d="M0 0 C-0.33 0.99 -0.66 1.98 -1 3 C-3.97 2.67 -6.94 2.34 -10 2 C-6.16991045 -0.55339303 -4.41711378 -1.47237126 0 0 Z " fill="#7FBE6B" transform="translate(323,237)"/>
<path d="M0 0 C1.80125336 2.70188004 3.00243753 4.93057703 4 8 C3.67 8.99 3.34 9.98 3 11 C2.01 10.34 1.02 9.68 0 9 C-0.29296875 6.8359375 -0.29296875 6.8359375 -0.1875 4.375 C-0.16042969 3.55773437 -0.13335937 2.74046875 -0.10546875 1.8984375 C-0.05326172 0.95871094 -0.05326172 0.95871094 0 0 Z " fill="#82BD6F" transform="translate(226,214)"/>
<path d="M0 0 C1.32 0.33 2.64 0.66 4 1 C3.43628586 4.26954202 2.50037734 5.82575883 0 8 C-0.66 7.67 -1.32 7.34 -2 7 C-1.34 4.69 -0.68 2.38 0 0 Z " fill="#74B35E" transform="translate(371,217)"/>
<path d="M0 0 C4.875 3.625 4.875 3.625 6 7 C4.68 7 3.36 7 2 7 C0 4 0 4 0 0 Z " fill="#75B263" transform="translate(235,143)"/>
<path d="M0 0 C2 3 2 3 2 6 C1.34 6 0.68 6 0 6 C0 6.99 0 7.98 0 9 C-0.66 9 -1.32 9 -2 9 C-2.33 9.66 -2.66 10.32 -3 11 C-2.53199289 6.94393835 -2.12046792 3.53411321 0 0 Z " fill="#8DC57C" transform="translate(95,361)"/>
<path d="M0 0 C0.99 0.33 1.98 0.66 3 1 C2.32829194 4.8063457 1.27253436 8.35206816 0 12 C-1.17661508 8.32307787 -1.14475933 4.8361222 -1 1 C-0.67 0.67 -0.34 0.34 0 0 Z " fill="#80BB6E" transform="translate(439,114)"/>
<path d="M0 0 C3.08089673 2.77280706 4.68775452 5.06326356 6 9 C4.02 8.01 2.04 7.02 0 6 C0 4.02 0 2.04 0 0 Z " fill="#7CB66B" transform="translate(345,342)"/>
<path d="M0 0 C2.49361571 1.20381448 4.68143083 2.45428722 7 4 C7 4.66 7 5.32 7 6 C5.02 6 3.04 6 1 6 C0.67 4.02 0.34 2.04 0 0 Z " fill="#85BD6D" transform="translate(376,382)"/>
<path d="M0 0 C3.3 1.65 6.6 3.3 10 5 C10 5.33 10 5.66 10 6 C8.35 6 6.7 6 5 6 C5 5.34 5 4.68 5 4 C3.35 3.67 1.7 3.34 0 3 C0 2.01 0 1.02 0 0 Z " fill="#89BC7C" transform="translate(366,376)"/>
<path d="M0 0 C4.31392226 0.4793247 6.16569547 1.7457985 9 5 C7.68 5 6.36 5 5 5 C5 4.34 5 3.68 5 3 C3.35 3 1.7 3 0 3 C0 2.01 0 1.02 0 0 Z " fill="#7CB36A" transform="translate(326,329)"/>
<path d="M0 0 C0 0.99 0 1.98 0 3 C-6.75 2.25 -6.75 2.25 -9 0 C-5.67465243 -1.10844919 -3.37817425 -0.84454356 0 0 Z " fill="#7AB566" transform="translate(166,252)"/>
<path d="M0 0 C1.32 0 2.64 0 4 0 C4 0.66 4 1.32 4 2 C5.32 2.33 6.64 2.66 8 3 C8.33 4.32 8.66 5.64 9 7 C2.57142857 2.85714286 2.57142857 2.85714286 0 0 Z " fill="#7DB96B" transform="translate(119,229)"/>
<path d="M0 0 C0 2 0 2 -1.625 4.0625 C-4.44287547 6.36129314 -6.4257023 6.67506385 -10 7 C-3.24137931 0 -3.24137931 0 0 0 Z " fill="#7AB668" transform="translate(365,158)"/>
<path d="M0 0 C6.625 0.75 6.625 0.75 10 3 C6.18510326 4.46726798 3.70988378 3.43336419 0 2 C0 1.34 0 0.68 0 0 Z " fill="#9BD48A" transform="translate(133,144)"/>
<path d="M0 0 C0 0.66 0 1.32 0 2 C-1.95927063 3.7143618 -3.95880212 5.38405168 -6 7 C-6.99 6.34 -7.98 5.68 -9 5 C-7.87926138 4.16094435 -6.75325453 3.32892169 -5.625 2.5 C-4.99851562 2.0359375 -4.37203125 1.571875 -3.7265625 1.09375 C-2 0 -2 0 0 0 Z " fill="#67A84D" transform="translate(333,122)"/>
<path d="M0 0 C3.99500618 1.3697164 6.80009492 3.25722422 10 6 C6.05879291 5.43697042 3.2491277 4.3208055 0 2 C0 1.34 0 0.68 0 0 Z " fill="#77B266" transform="translate(196,115)"/>
<path d="M0 0 C0.66 0.33 1.32 0.66 2 1 C1.67 1.66 1.34 2.32 1 3 C0.34 3 -0.32 3 -1 3 C-1.33 4.65 -1.66 6.3 -2 8 C-2.99 8 -3.98 8 -5 8 C-3.8141763 4.62496331 -2.72426311 2.35277269 0 0 Z " fill="#82BB71" transform="translate(147,332)"/>
<path d="M0 0 C1.32 0.99 2.64 1.98 4 3 C3.67 5.64 3.34 8.28 3 11 C0.43383368 7.15075052 0.44902324 4.5650696 0 0 Z " fill="#74AE5F" transform="translate(248,233)"/>
<path d="M0 0 C1.32 0.66 2.64 1.32 4 2 C2.69593116 4.01920337 1.36176581 6.01924973 0 8 C-0.33 8 -0.66 8 -1 8 C-1.125 2.25 -1.125 2.25 0 0 Z " fill="#81BB71" transform="translate(396,192)"/>
<path d="M0 0 C1.32 0.33 2.64 0.66 4 1 C0.535 3.97 0.535 3.97 -3 7 C-3.33 5.68 -3.66 4.36 -4 3 C-2.68 3 -1.36 3 0 3 C0 2.01 0 1.02 0 0 Z " fill="#7CB66B" transform="translate(313,185)"/>
<path d="M0 0 C0.66 0 1.32 0 2 0 C2.33 0.66 2.66 1.32 3 2 C3.99 2.33 4.98 2.66 6 3 C5.67 4.32 5.34 5.64 5 7 C3.02 5.35 1.04 3.7 -1 2 C-0.67 1.34 -0.34 0.68 0 0 Z " fill="#7BB668" transform="translate(209,176)"/>
<path d="M0 0 C5.49152542 0.61016949 5.49152542 0.61016949 7.875 2.4375 C9 4 9 4 9 6 C5.56404834 4.47291037 2.88087546 2.40072955 0 0 Z " fill="#7CB164" transform="translate(192,166)"/>
<path d="M0 0 C-0.66 0 -1.32 0 -2 0 C-1.67 1.32 -1.34 2.64 -1 4 C-3.64 3.67 -6.28 3.34 -9 3 C-6.07868595 -0.19953443 -4.37453972 -1.45817991 0 0 Z " fill="#8CC87B" transform="translate(115,348)"/>
<path d="M0 0 C3.26460973 1.80412643 4.88929795 2.83394693 7 6 C4.625 5.8125 4.625 5.8125 2 5 C0.6875 2.4375 0.6875 2.4375 0 0 Z " fill="#80B76D" transform="translate(338,336)"/>
<path d="M0 0 C0.66 0.33 1.32 0.66 2 1 C0.35 3.64 -1.3 6.28 -3 9 C-4 7 -4 7 -3.1875 4.5 C-2 2 -2 2 0 0 Z " fill="#84B776" transform="translate(299,203)"/>
<path d="M0 0 C1.32 0 2.64 0 4 0 C3 3 3 3 -0.0625 4.6875 C-1.031875 5.120625 -2.00125 5.55375 -3 6 C-3 5.01 -3 4.02 -3 3 C-2.01 3 -1.02 3 0 3 C0 2.01 0 1.02 0 0 Z " fill="#7DB86B" transform="translate(332,169)"/>
<path d="M0 0 C1.65 0 3.3 0 5 0 C5 0.66 5 1.32 5 2 C2.36 2.99 -0.28 3.98 -3 5 C-3 4.01 -3 3.02 -3 2 C-2.01 2 -1.02 2 0 2 C0 1.34 0 0.68 0 0 Z " fill="#80BD70" transform="translate(357,155)"/>
<path d="M0 0 C0.99 0 1.98 0 3 0 C2.01 2.97 1.02 5.94 0 9 C-0.33 9 -0.66 9 -1 9 C-1.125 2.25 -1.125 2.25 0 0 Z " fill="#81B96D" transform="translate(429,138)"/>
<path d="M0 0 C3.79588866 0.54226981 5.47211993 2.20127563 8 5 C5.125 4.75 5.125 4.75 2 4 C0.625 1.9375 0.625 1.9375 0 0 Z " fill="#76B362" transform="translate(208,122)"/>
<path d="M0 0 C1.9375 0.75 1.9375 0.75 4 2 C4.75 4.125 4.75 4.125 5 6 C4.01 6.33 3.02 6.66 2 7 C1.34 4.69 0.68 2.38 0 0 Z " fill="#7BB364" transform="translate(240,215)"/>
<path d="M0 0 C3.36591866 1.44253657 5.51047079 3.33264727 8 6 C7.34 6.66 6.68 7.32 6 8 C6 7.34 6 6.68 6 6 C5.01 5.67 4.02 5.34 3 5 C1.3125 2.4375 1.3125 2.4375 0 0 Z " fill="#88C179" transform="translate(193,176)"/>
<path d="M0 0 C-0.99 0.495 -0.99 0.495 -2 1 C-2 1.66 -2 2.32 -2 3 C-4.31 2.67 -6.62 2.34 -9 2 C-5.945634 -1.054366 -3.9532319 -1.22686507 0 0 Z " fill="#60A649" transform="translate(292,329)"/>
<path d="M0 0 C0.99 0.33 1.98 0.66 3 1 C2.67 4.3 2.34 7.6 2 11 C1.67 11 1.34 11 1 11 C0.67 7.37 0.34 3.74 0 0 Z " fill="#7FB56C" transform="translate(283,240)"/>
<path d="M0 0 C0.66 0 1.32 0 2 0 C1.75 2.375 1.75 2.375 1 5 C-1.0625 6.3125 -1.0625 6.3125 -3 7 C-3 6.01 -3 5.02 -3 4 C-2.01 4 -1.02 4 0 4 C0 2.68 0 1.36 0 0 Z " fill="#7AB569" transform="translate(387,204)"/>
<path d="M0 0 C0.99 0 1.98 0 3 0 C2.625 2.4375 2.625 2.4375 2 5 C1.01 5.495 1.01 5.495 0 6 C-1.125 2.25 -1.125 2.25 0 0 Z " fill="#72B057" transform="translate(279,186)"/>
<path d="M0 0 C1.32 1.32 2.64 2.64 4 4 C1.69 4 -0.62 4 -3 4 C-2.67 3.01 -2.34 2.02 -2 1 C-1.34 0.67 -0.68 0.34 0 0 Z " fill="#6DB656" transform="translate(228,136)"/>
<path d="M0 0 C0.33 0.66 0.66 1.32 1 2 C1.66 2 2.32 2 3 2 C3 4.64 3 7.28 3 10 C0.70366176 6.55549263 0.45983515 4.06187717 0 0 Z " fill="#87BC76" transform="translate(56,120)"/>
</svg>
